<mxfile host="app.diagrams.net" modified="2022-11-24T09:01:20.114Z" agent="5.0 (Macintosh; Intel Mac OS X 10_15_7) AppleWebKit/605.1.15 (KHTML, like Gecko) Version/16.1 Safari/605.1.15" etag="_pUjwkZUSgV9OPnWb49y" version="20.5.3" type="github">
  <diagram id="dMxhEbPiuhelspo7tXM4" name="Seite-1">
    <mxGraphModel dx="984" dy="483" grid="1" gridSize="10" guides="1" tooltips="1" connect="1" arrows="1" fold="1" page="1" pageScale="1" pageWidth="827" pageHeight="1169" math="0" shadow="0">
      <root>
        <mxCell id="0" />
        <mxCell id="1" parent="0" />
        <mxCell id="UQPi_x9n0-3kjXllLH2i-5" style="edgeStyle=orthogonalEdgeStyle;rounded=0;orthogonalLoop=1;jettySize=auto;html=1;entryX=1;entryY=0.5;entryDx=0;entryDy=0;" parent="1" source="UQPi_x9n0-3kjXllLH2i-1" target="UQPi_x9n0-3kjXllLH2i-2" edge="1">
          <mxGeometry relative="1" as="geometry">
            <Array as="points">
              <mxPoint x="360" y="65" />
              <mxPoint x="360" y="145" />
            </Array>
          </mxGeometry>
        </mxCell>
        <mxCell id="UQPi_x9n0-3kjXllLH2i-1" value="Agent" style="rounded=0;whiteSpace=wrap;html=1;" parent="1" vertex="1">
          <mxGeometry x="169.97" y="40" width="100.03" height="50" as="geometry" />
        </mxCell>
        <mxCell id="UQPi_x9n0-3kjXllLH2i-25" style="edgeStyle=orthogonalEdgeStyle;rounded=0;orthogonalLoop=1;jettySize=auto;html=1;entryX=0;entryY=0.5;entryDx=0;entryDy=0;" parent="1" source="UQPi_x9n0-3kjXllLH2i-2" target="UQPi_x9n0-3kjXllLH2i-1" edge="1">
          <mxGeometry relative="1" as="geometry">
            <Array as="points">
              <mxPoint x="80" y="145" />
              <mxPoint x="80" y="65" />
            </Array>
          </mxGeometry>
        </mxCell>
        <mxCell id="UQPi_x9n0-3kjXllLH2i-2" value="Environment" style="rounded=0;whiteSpace=wrap;html=1;" parent="1" vertex="1">
          <mxGeometry x="169.97" y="120" width="100.03" height="50" as="geometry" />
        </mxCell>
        <mxCell id="UQPi_x9n0-3kjXllLH2i-8" value="State" style="text;html=1;strokeColor=none;fillColor=none;align=center;verticalAlign=middle;whiteSpace=wrap;rounded=0;" parent="1" vertex="1">
          <mxGeometry x="20" y="70" width="60" height="30" as="geometry" />
        </mxCell>
        <mxCell id="UQPi_x9n0-3kjXllLH2i-9" value="Reward" style="text;html=1;strokeColor=none;fillColor=none;align=center;verticalAlign=middle;whiteSpace=wrap;rounded=0;" parent="1" vertex="1">
          <mxGeometry x="80" y="70" width="60" height="30" as="geometry" />
        </mxCell>
        <mxCell id="UQPi_x9n0-3kjXllLH2i-12" value="Action" style="text;html=1;strokeColor=none;fillColor=none;align=center;verticalAlign=middle;whiteSpace=wrap;rounded=0;" parent="1" vertex="1">
          <mxGeometry x="360" y="70" width="60" height="30" as="geometry" />
        </mxCell>
        <mxCell id="UQPi_x9n0-3kjXllLH2i-14" value="S&lt;sub&gt;t&lt;/sub&gt;" style="text;html=1;strokeColor=none;fillColor=none;align=center;verticalAlign=middle;whiteSpace=wrap;rounded=0;" parent="1" vertex="1">
          <mxGeometry x="20" y="90" width="60" height="30" as="geometry" />
        </mxCell>
        <mxCell id="UQPi_x9n0-3kjXllLH2i-17" value="R&lt;sub&gt;t+1&lt;/sub&gt;" style="text;html=1;strokeColor=none;fillColor=none;align=center;verticalAlign=middle;whiteSpace=wrap;rounded=0;" parent="1" vertex="1">
          <mxGeometry x="109.97" y="150" width="60" height="30" as="geometry" />
        </mxCell>
        <mxCell id="UQPi_x9n0-3kjXllLH2i-19" value="A&lt;sub&gt;t&lt;/sub&gt;" style="text;html=1;strokeColor=none;fillColor=none;align=center;verticalAlign=middle;whiteSpace=wrap;rounded=0;" parent="1" vertex="1">
          <mxGeometry x="360" y="90" width="60" height="30" as="geometry" />
        </mxCell>
        <mxCell id="UQPi_x9n0-3kjXllLH2i-20" value="R&lt;sub&gt;t&lt;/sub&gt;" style="text;html=1;strokeColor=none;fillColor=none;align=center;verticalAlign=middle;whiteSpace=wrap;rounded=0;" parent="1" vertex="1">
          <mxGeometry x="80" y="90" width="60" height="30" as="geometry" />
        </mxCell>
        <mxCell id="UQPi_x9n0-3kjXllLH2i-18" value="S&lt;sub&gt;t+1&lt;/sub&gt;" style="text;html=1;strokeColor=none;fillColor=none;align=center;verticalAlign=middle;whiteSpace=wrap;rounded=0;" parent="1" vertex="1">
          <mxGeometry x="70" y="150" width="60" height="30" as="geometry" />
        </mxCell>
        <mxCell id="UQPi_x9n0-3kjXllLH2i-26" value="" style="endArrow=none;dashed=1;html=1;rounded=0;" parent="1" edge="1">
          <mxGeometry width="50" height="50" relative="1" as="geometry">
            <mxPoint x="60" y="130" as="sourcePoint" />
            <mxPoint x="100" y="130" as="targetPoint" />
          </mxGeometry>
        </mxCell>
        <mxCell id="UQPi_x9n0-3kjXllLH2i-27" value="Step" style="text;html=1;strokeColor=none;fillColor=none;align=center;verticalAlign=middle;whiteSpace=wrap;rounded=0;" parent="1" vertex="1">
          <mxGeometry x="87" y="113" width="60" height="30" as="geometry" />
        </mxCell>
        <mxCell id="KcDvSBQb6RazlgJL7Ulf-1" value="Update" style="text;html=1;strokeColor=none;fillColor=none;align=center;verticalAlign=middle;whiteSpace=wrap;rounded=0;" vertex="1" parent="1">
          <mxGeometry x="91" y="180" width="60" height="30" as="geometry" />
        </mxCell>
        <mxCell id="KcDvSBQb6RazlgJL7Ulf-2" value="" style="strokeWidth=2;html=1;shape=mxgraph.flowchart.annotation_2;align=left;labelPosition=right;pointerEvents=1;rotation=-90;" vertex="1" parent="1">
          <mxGeometry x="110.5" y="141.5" width="18" height="70" as="geometry" />
        </mxCell>
      </root>
    </mxGraphModel>
  </diagram>
</mxfile>
